<?xml version="1.0" encoding="utf-8"?>
<!-- Generator: Adobe Illustrator 21.0.0, SVG Export Plug-In . SVG Version: 6.00 Build 0)  -->
<svg version="1.1" id="Layer_1" xmlns="http://www.w3.org/2000/svg" xmlns:xlink="http://www.w3.org/1999/xlink" x="0px" y="0px"
	 viewBox="0 0 128 128" style="enable-background:new 0 0 128 128;" xml:space="preserve">
<style type="text/css">
	.st0{fill:#3E3E42;}
	.st1{fill:#D2D2D6;}
	.st2{fill:#57575E;}
	.st3{fill:#A6A6AD;}
	.st4{fill:#E2574C;}
	.st5{fill:#FFFFFF;}
	.st6{fill:#FCF4DF;}
	.st7{fill:#E66E65;}
	.st8{fill:#CB4E44;}
	.st9{fill:#F9DDDB;}
</style>
<path class="st0" d="M18,91V36.5c0-3.3,2.7-5.5,6-5.5h80c3.3,0,6,2.2,6,5.5V91"/>
<path class="st1" d="M12,92.5v1c0,2.2,1.8,4.5,4,4.5h96c2.2,0,4-2.3,4-4.5v-1c0-1.1-0.9-1.5-2-1.5H14C12.9,91,12,91.4,12,92.5z"/>
<rect x="23" y="36" class="st2" width="82" height="50"/>
<path class="st3" d="M76,94H52c-1.1,0-2-1.4-2-2.5V91h28v0.5C78,92.6,77.1,94,76,94z"/>
<path class="st4" d="M45.3,46.4c6.8-6.9,13.6-3.9,19,1c5.4-5,12.1-8,19-1c5.4,5.5,5.4,14.2,0,19.6c-9.1,8.3-13.8,12.6-16.3,14.9
	c-1.5,1.4-3.9,1.4-5.4,0c-2.5-2.3-7.3-6.6-16.4-14.9C39.9,60.7,39.9,51.9,45.3,46.4z"/>
<path class="st5" d="M39.5,78c2.2-0.2,3.4-1.4,3.6-3.6c0.2,2.2,1.4,3.4,3.6,3.6c-2.2,0.2-3.4,1.4-3.6,3.6
	C42.9,79.4,41.7,78.2,39.5,78z M93.1,71.3c-0.2,2.2-1.4,3.4-3.6,3.6c2.2,0.2,3.4,1.4,3.6,3.6c0.2-2.2,1.4-3.4,3.6-3.6
	C94.6,74.7,93.4,73.5,93.1,71.3z M30.8,41c-0.2,2.2-1.4,3.4-3.6,3.6c2.2,0.2,3.4,1.4,3.6,3.6c0.2-2.2,1.4-3.4,3.6-3.6
	C32.3,44.4,31.1,43.2,30.8,41z"/>
<path class="st6" d="M76.6,46.7c3.9-0.4,6.1-2.6,6.5-6.5c0.4,3.9,2.6,6.1,6.5,6.5c-3.9,0.4-6.1,2.6-6.5,6.5
	C82.6,49.3,80.4,47.1,76.6,46.7z"/>
<path class="st7" d="M46.3,55.8c0-4.6,3.8-8.4,8.4-8.4c0.5,0,0.9,0.4,0.9,0.9s-0.4,0.9-0.9,0.9c-3.6,0-6.5,2.9-6.5,6.5
	c0,0.5-0.4,0.9-0.9,0.9C46.7,56.8,46.3,56.4,46.3,55.8z"/>
<path class="st8" d="M63.2,79.6c-2.5-2.3-7.3-6.6-16.4-14.9l0,0L46,63.9c-3.6-3.6-4.7-8.6-3.6-13.2c-2.2,5.1-1.2,11.2,2.9,15.3
	c9.1,8.3,13.9,12.6,16.4,14.9c1.6,1.4,3.9,1.4,5.4,0l1.3-1.2C66.8,80.9,64.7,80.9,63.2,79.6z"/>
<path class="st9" d="M85,48.6c-0.5-0.8-1.1-1.5-1.7-2.1c-0.7-0.7-1.4-1.3-2.1-1.8c-1.1,1.2-2.6,1.9-4.7,2.1c3.9,0.4,6.1,2.6,6.5,6.5
	C83.3,51.2,83.9,49.7,85,48.6z"/>
</svg>
